<svg width="270" height="52" viewBox="0 0 270 52" fill="none" xmlns="http://www.w3.org/2000/svg">
<path d="M48 25.5C48 28.55 46.7884 31.4751 44.6317 33.6317C42.4751 35.7884 39.55 37 36.5 37C33.45 37 30.5249 35.7884 28.3683 33.6317C26.2116 31.4751 25 28.55 25 25.5C25 22.45 26.2116 19.5249 28.3683 17.3683C30.5249 15.2116 33.45 14 36.5 14C39.55 14 42.4751 15.2116 44.6317 17.3683C46.7884 19.5249 48 22.45 48 25.5V25.5Z" fill="url(#paint0_linear_8_3)"/>
<path d="M0 26C0 26 13.5 0 36 0C58.5 0 72 26 72 26C72 26 58.5 52 36 52C13.5 52 0 26 0 26ZM36 42.5455C40.1772 42.5455 44.1832 40.8023 47.1369 37.6994C50.0906 34.5965 51.75 30.3881 51.75 26C51.75 21.6119 50.0906 17.4035 47.1369 14.3006C44.1832 11.1977 40.1772 9.45455 36 9.45455C31.8228 9.45455 27.8168 11.1977 24.8631 14.3006C21.9094 17.4035 20.25 21.6119 20.25 26C20.25 30.3881 21.9094 34.5965 24.8631 37.6994C27.8168 40.8023 31.8228 42.5455 36 42.5455V42.5455Z" fill="url(#paint1_linear_8_3)"/>
<path d="M101.816 39.144C101.912 38.104 102.232 37.08 102.776 36.072C103.336 35.064 103.968 34.256 104.672 33.648C106.032 34.464 107.568 35.192 109.28 35.832C110.992 36.472 112.696 36.792 114.392 36.792C115.864 36.792 116.936 36.448 117.608 35.76C118.28 35.056 118.616 34.28 118.616 33.432C118.616 32.824 118.416 32.184 118.016 31.512C117.632 30.824 116.76 30.2 115.4 29.64L109.616 27.216C107.632 26.384 105.992 25.28 104.696 23.904C103.416 22.528 102.776 20.704 102.776 18.432C102.776 16.464 103.288 14.736 104.312 13.248C105.336 11.76 106.72 10.6 108.464 9.768C110.224 8.936 112.184 8.52 114.344 8.52C116.584 8.52 118.688 8.808 120.656 9.384C122.624 9.96 124.232 10.576 125.48 11.232C125.416 12.272 125.16 13.288 124.712 14.28C124.264 15.256 123.688 16.072 122.984 16.728C121.752 16.136 120.328 15.6 118.712 15.12C117.096 14.64 115.648 14.4 114.368 14.4C112.944 14.4 111.904 14.728 111.248 15.384C110.608 16.04 110.288 16.736 110.288 17.472C110.288 18.144 110.512 18.736 110.96 19.248C111.424 19.744 112.192 20.216 113.264 20.664L119.144 23.112C120.664 23.736 121.96 24.52 123.032 25.464C124.12 26.392 124.944 27.456 125.504 28.656C126.08 29.84 126.368 31.128 126.368 32.52C126.368 34.44 125.904 36.168 124.976 37.704C124.064 39.24 122.68 40.456 120.824 41.352C118.984 42.248 116.672 42.696 113.888 42.696C111.936 42.696 109.872 42.392 107.696 41.784C105.536 41.16 103.576 40.28 101.816 39.144ZM151.215 30.048C151.215 32.592 150.799 34.816 149.967 36.72C149.135 38.608 147.903 40.08 146.271 41.136C144.639 42.176 142.623 42.696 140.223 42.696C137.823 42.696 135.807 42.168 134.175 41.112C132.543 40.056 131.311 38.584 130.479 36.696C129.663 34.792 129.255 32.576 129.255 30.048C129.255 27.488 129.671 25.264 130.503 23.376C131.335 21.472 132.567 20 134.199 18.96C135.831 17.904 137.839 17.376 140.223 17.376C142.639 17.376 144.663 17.904 146.295 18.96C147.927 20.016 149.151 21.496 149.967 23.4C150.799 25.288 151.215 27.504 151.215 30.048ZM136.599 30.048C136.599 31.392 136.687 32.616 136.863 33.72C137.039 34.824 137.383 35.704 137.895 36.36C138.423 37.016 139.207 37.344 140.247 37.344C141.287 37.344 142.063 37.016 142.575 36.36C143.087 35.704 143.431 34.824 143.607 33.72C143.783 32.616 143.871 31.392 143.871 30.048C143.871 28.704 143.783 27.48 143.607 26.376C143.431 25.256 143.087 24.368 142.575 23.712C142.063 23.056 141.287 22.728 140.247 22.728C139.207 22.728 138.423 23.056 137.895 23.712C137.383 24.368 137.039 25.256 136.863 26.376C136.687 27.48 136.599 28.704 136.599 30.048ZM167.798 28.512C167.814 27.296 167.75 26.256 167.606 25.392C167.478 24.528 167.198 23.864 166.766 23.4C166.334 22.936 165.678 22.704 164.798 22.704C163.63 22.704 162.798 23.296 162.302 24.48C161.822 25.664 161.582 27.544 161.582 30.12C161.582 32.696 161.95 34.504 162.686 35.544C163.438 36.584 164.518 37.104 165.926 37.104C166.886 37.104 167.822 36.896 168.734 36.48C169.662 36.048 170.51 35.56 171.278 35.016C171.854 35.352 172.406 35.928 172.934 36.744C173.478 37.56 173.83 38.328 173.99 39.048C172.934 40.152 171.574 41.04 169.91 41.712C168.246 42.368 166.534 42.696 164.774 42.696C163.046 42.696 161.526 42.4 160.214 41.808C158.902 41.2 157.806 40.344 156.926 39.24C156.062 38.12 155.406 36.792 154.958 35.256C154.51 33.704 154.286 31.992 154.286 30.12C154.286 27.032 154.806 24.56 155.846 22.704C156.902 20.832 158.246 19.48 159.878 18.648C161.51 17.8 163.198 17.376 164.942 17.376C166.302 17.376 167.55 17.576 168.686 17.976C169.822 18.36 170.798 18.904 171.614 19.608C172.446 20.312 173.086 21.144 173.534 22.104C173.982 23.064 174.206 24.112 174.206 25.248C174.206 26.448 173.878 27.336 173.222 27.912C172.566 28.488 171.718 28.776 170.678 28.776C170.086 28.776 169.566 28.752 169.118 28.704C168.686 28.656 168.246 28.592 167.798 28.512ZM187.161 42C186.105 42.176 184.913 42.264 183.585 42.264C182.289 42.264 181.097 42.176 180.009 42V25.872C180.009 25.072 179.841 24.416 179.505 23.904C179.185 23.392 178.601 23.136 177.753 23.136H177.081C176.873 22.352 176.769 21.544 176.769 20.712C176.769 20.312 176.793 19.888 176.841 19.44C176.889 18.976 176.969 18.536 177.081 18.12C177.785 18.04 178.505 17.984 179.241 17.952C179.993 17.904 180.617 17.88 181.113 17.88H182.121C183.657 17.88 184.881 18.384 185.793 19.392C186.705 20.384 187.161 21.728 187.161 23.424V42ZM178.545 11.376C178.545 10.416 178.729 9.52 179.097 8.688C179.497 8.48 180.009 8.304 180.633 8.16C181.273 8.016 181.905 7.944 182.529 7.944C183.137 7.944 183.769 8.016 184.425 8.16C185.097 8.304 185.609 8.48 185.961 8.688C186.137 9.088 186.273 9.536 186.369 10.032C186.465 10.512 186.513 10.96 186.513 11.376C186.513 12.32 186.329 13.224 185.961 14.088C185.609 14.296 185.097 14.472 184.425 14.616C183.769 14.744 183.137 14.808 182.529 14.808C181.905 14.808 181.265 14.744 180.609 14.616C179.953 14.472 179.449 14.296 179.097 14.088C178.729 13.224 178.545 12.32 178.545 11.376ZM191.645 35.448C191.645 33.544 192.085 31.984 192.965 30.768C193.861 29.536 195.029 28.632 196.469 28.056C197.909 27.464 199.453 27.168 201.101 27.168C201.853 27.168 202.781 27.192 203.885 27.24C204.989 27.272 205.981 27.376 206.861 27.552V32.112C206.141 31.952 205.293 31.856 204.317 31.824C203.341 31.792 202.509 31.776 201.821 31.776C200.701 31.776 199.885 32.072 199.373 32.664C198.861 33.256 198.605 34.024 198.605 34.968C198.605 35.656 198.813 36.232 199.229 36.696C199.645 37.16 200.221 37.392 200.957 37.392C201.949 37.392 202.965 37.04 204.005 36.336C205.045 35.632 205.917 34.648 206.621 33.384L207.629 38.016C207.005 38.752 206.285 39.48 205.469 40.2C204.669 40.904 203.733 41.496 202.661 41.976C201.589 42.456 200.341 42.696 198.917 42.696C197.269 42.696 195.909 42.336 194.837 41.616C193.765 40.88 192.965 39.96 192.437 38.856C191.909 37.736 191.645 36.6 191.645 35.448ZM213.173 38.712C213.029 39.352 212.733 40.04 212.285 40.776C211.853 41.496 211.405 42.032 210.941 42.384C209.581 42.336 208.461 42.008 207.581 41.4C206.717 40.792 206.053 40.056 205.589 39.192C205.125 38.312 204.829 37.448 204.701 36.6V26.28C204.701 25.192 204.429 24.384 203.885 23.856C203.357 23.328 202.541 23.064 201.437 23.064C200.381 23.064 199.237 23.232 198.005 23.568C196.789 23.888 195.557 24.24 194.309 24.624C193.797 24.048 193.389 23.296 193.085 22.368C192.797 21.44 192.613 20.536 192.533 19.656C193.589 19.224 194.757 18.848 196.037 18.528C197.333 18.208 198.621 17.96 199.901 17.784C201.181 17.608 202.341 17.52 203.381 17.52C204.805 17.52 206.157 17.784 207.437 18.312C208.733 18.84 209.789 19.704 210.605 20.904C211.421 22.088 211.829 23.68 211.829 25.68V35.448C211.829 36.184 211.933 36.824 212.141 37.368C212.349 37.896 212.693 38.344 213.173 38.712ZM228.063 36.768C228.447 37.84 228.639 38.976 228.639 40.176C228.639 40.432 228.623 40.704 228.591 40.992C228.575 41.28 228.535 41.544 228.471 41.784C227.783 41.896 226.991 42 226.095 42.096C225.215 42.192 224.335 42.24 223.455 42.24C221.375 42.24 219.887 41.72 218.991 40.68C218.095 39.624 217.647 38 217.647 35.808V7.008L217.983 6.672H220.743C222.167 6.672 223.167 7 223.743 7.656C224.335 8.296 224.631 9.416 224.631 11.016V34.512C224.631 35.248 224.791 35.808 225.111 36.192C225.431 36.576 225.959 36.768 226.695 36.768H228.063ZM234.929 9.264C235.697 9.136 236.545 9.048 237.473 9C238.401 8.936 239.201 8.904 239.873 8.904C240.529 8.904 241.265 8.936 242.081 9C242.913 9.048 243.721 9.136 244.505 9.264L247.577 21.456C247.657 21.76 247.769 22.264 247.913 22.968C248.073 23.672 248.249 24.464 248.441 25.344C248.633 26.208 248.809 27.064 248.969 27.912C249.145 28.744 249.281 29.448 249.377 30.024H249.689C249.785 29.448 249.921 28.744 250.097 27.912C250.273 27.064 250.449 26.208 250.625 25.344C250.817 24.464 250.993 23.672 251.153 22.968C251.329 22.264 251.449 21.76 251.513 21.456L254.585 9.264C255.369 9.136 256.169 9.048 256.985 9C257.817 8.936 258.561 8.904 259.217 8.904C259.873 8.904 260.665 8.936 261.593 9C262.521 9.048 263.377 9.136 264.161 9.264L266.705 41.904C266.177 42.032 265.569 42.12 264.881 42.168C264.209 42.232 263.577 42.264 262.985 42.264C262.441 42.264 261.897 42.248 261.353 42.216C260.825 42.184 260.305 42.128 259.793 42.048L259.001 28.104C258.937 27 258.873 25.808 258.809 24.528C258.761 23.232 258.713 21.952 258.665 20.688C258.633 19.408 258.617 18.256 258.617 17.232H258.281L253.313 37.152C252.769 37.232 252.129 37.296 251.393 37.344C250.657 37.392 250.033 37.416 249.521 37.416C249.041 37.416 248.433 37.392 247.697 37.344C246.961 37.296 246.321 37.232 245.777 37.152L240.785 17.232H240.473C240.473 18.256 240.449 19.408 240.401 20.688C240.353 21.952 240.305 23.232 240.257 24.528C240.209 25.808 240.153 27 240.089 28.104L239.297 42.048C238.769 42.128 238.241 42.184 237.713 42.216C237.185 42.248 236.641 42.264 236.081 42.264C235.489 42.264 234.849 42.232 234.161 42.168C233.489 42.12 232.897 42.032 232.385 41.904L234.929 9.264Z" fill="url(#paint2_linear_8_3)"/>
<defs>
<linearGradient id="paint0_linear_8_3" x1="36.5" y1="14" x2="36.5" y2="37" gradientUnits="userSpaceOnUse">
<stop stop-color="#E2336B"/>
<stop offset="0.109375" stop-color="#E54067"/>
<stop offset="0.203125" stop-color="#E74C63"/>
<stop offset="0.296875" stop-color="#EA5760"/>
<stop offset="0.385417" stop-color="#EC625D"/>
<stop offset="0.53125" stop-color="#F07357"/>
<stop offset="0.625" stop-color="#F27F54"/>
<stop offset="0.723958" stop-color="#F58B50"/>
<stop offset="0.859375" stop-color="#F89B4B"/>
<stop offset="1" stop-color="#FCAC46"/>
</linearGradient>
<linearGradient id="paint1_linear_8_3" x1="57.6" y1="43.3648" x2="35.7405" y2="51.2837" gradientUnits="userSpaceOnUse">
<stop stop-color="#E2336B"/>
<stop offset="0.109375" stop-color="#E54067"/>
<stop offset="0.203125" stop-color="#E74C63"/>
<stop offset="0.296875" stop-color="#EA5760"/>
<stop offset="0.385417" stop-color="#EC625D"/>
<stop offset="0.53125" stop-color="#F07357"/>
<stop offset="0.625" stop-color="#F27F54"/>
<stop offset="0.723958" stop-color="#F58B50"/>
<stop offset="0.859375" stop-color="#F89B4B"/>
<stop offset="1" stop-color="#FCAC46"/>
</linearGradient>
<linearGradient id="paint2_linear_8_3" x1="185.5" y1="9" x2="185.5" y2="44" gradientUnits="userSpaceOnUse">
<stop stop-color="#E2336B"/>
<stop offset="1" stop-color="#FCAC46"/>
</linearGradient>
</defs>
</svg>
